<svg width="32" height="32" viewBox="0 0 32 32" fill="none" xmlns="http://www.w3.org/2000/svg">
<path d="M18.6641 2.66602C18.6641 2.66602 21.5974 2.93268 25.3307 6.66602C29.0641 10.3993 29.3307 13.3327 29.3307 13.3327" stroke="white" stroke-width="1.5" stroke-linecap="round"/>
<path d="M18.9453 7.38086C18.9453 7.38086 20.2652 7.75798 22.2451 9.73788C24.225 11.7178 24.6022 13.0377 24.6022 13.0377" stroke="white" stroke-width="1.5" stroke-linecap="round"/>
<path d="M13.3861 7.08888L14.2514 8.63945C15.0323 10.0388 14.7188 11.8744 13.4889 13.1044C13.4889 13.1044 13.4889 13.1044 13.4889 13.1044C13.4888 13.1045 11.9971 14.5964 14.702 17.3013C17.4062 20.0055 18.8981 18.5152 18.8989 18.5144C18.8989 18.5143 18.8989 18.5144 18.8989 18.5143C20.1289 17.2844 21.9645 16.9709 23.3638 17.7518L24.9144 18.6172C27.0274 19.7964 27.2769 22.7596 25.4196 24.6169C24.3036 25.7329 22.9365 26.6013 21.4252 26.6586C18.881 26.755 14.5603 26.1111 10.2262 21.777C5.89211 17.4429 5.24822 13.1223 5.34467 10.5781C5.40197 9.06678 6.27034 7.69963 7.38635 6.58363C9.24361 4.72636 12.2068 4.9759 13.3861 7.08888Z" stroke="white" stroke-width="1.5" stroke-linecap="round"/>
</svg>
